<svg width="18" height="16" viewBox="0 0 18 16" fill="none" xmlns="http://www.w3.org/2000/svg">
<path d="M16.2 2H9L7.731 0.59C7.389 0.21 6.93 0 6.453 0H1.8C0.801 0 0.00899999 0.89 0.00899999 2L0 14C0 15.11 0.801 16 1.8 16H16.2C17.19 16 18 15.1 18 14V4C18 2.9 17.19 2 16.2 2ZM14.4 10H12.6V12C12.6 12.55 12.195 13 11.7 13C11.205 13 10.8 12.55 10.8 12V10H9C8.505 10 8.1 9.55 8.1 9C8.1 8.45 8.505 8 9 8H10.8V6C10.8 5.45 11.205 5 11.7 5C12.195 5 12.6 5.45 12.6 6V8H14.4C14.895 8 15.3 8.45 15.3 9C15.3 9.55 14.895 10 14.4 10Z" fill="#717171"/>
</svg>
