<svg width="18" height="18" viewBox="0 0 18 18" fill="none" xmlns="http://www.w3.org/2000/svg">
<path d="M17.6275 8.46764L9.4491 0.188556C9.39021 0.128784 9.32027 0.0813637 9.24327 0.0490089C9.16627 0.016654 9.08373 0 9.00037 0C8.91701 0 8.83447 0.016654 8.75747 0.0490089C8.68047 0.0813637 8.61053 0.128784 8.55164 0.188556L0.373278 8.46764C0.135015 8.70901 0 9.03687 0 9.37882C0 10.0889 0.569845 10.6661 1.27073 10.6661H2.13245V16.5737C2.13245 16.9298 2.41638 17.2174 2.76782 17.2174H7.72964V12.7118H9.95342V17.2174H15.2329C15.5844 17.2174 15.8683 16.9298 15.8683 16.5737V10.6661H16.73C17.0675 10.6661 17.3912 10.5314 17.6295 10.288C18.1238 9.78513 18.1238 8.9705 17.6275 8.46764V8.46764Z" fill="#717171"/>
</svg>
