<svg width="20" height="12" viewBox="0 0 20 12" fill="none" xmlns="http://www.w3.org/2000/svg">
<path d="M18.6414 3.3757e-08H0.583983C0.495843 -2.99373e-05 0.408841 0.0198978 0.329502 0.0582892C0.250163 0.0966806 0.180547 0.152539 0.125876 0.221674C0.0712046 0.290808 0.0328973 0.371425 0.0138275 0.457477C-0.00524221 0.543528 -0.00457942 0.632782 0.0157661 0.718541L2.63598 11.773H16.5894L19.2096 0.718541C19.23 0.632782 19.2306 0.543528 19.2115 0.457477C19.1925 0.371425 19.1542 0.290808 19.0995 0.221674C19.0448 0.152539 18.9752 0.0966806 18.8959 0.0582892C18.8165 0.0198978 18.7295 -2.99373e-05 18.6414 3.3757e-08V3.3757e-08ZM9.61269 7.76724C9.25012 7.76551 8.8962 7.65639 8.59562 7.45365C8.29503 7.25091 8.06126 6.96365 7.92382 6.62814C7.78638 6.29263 7.75144 5.92392 7.82341 5.56857C7.89538 5.21322 8.07103 4.88716 8.32818 4.63156C8.58534 4.37597 8.91246 4.20231 9.26824 4.1325C9.62403 4.0627 9.99252 4.09988 10.3272 4.23936C10.6619 4.37884 10.9477 4.61436 11.1486 4.91617C11.3495 5.21799 11.4565 5.57257 11.456 5.93514C11.4532 6.42211 11.2577 6.88816 10.9123 7.23146C10.5669 7.57475 10.0997 7.76738 9.61269 7.76724V7.76724Z" fill="#717171"/>
</svg>
