<svg width="18" height="18" viewBox="0 0 18 18" fill="none" xmlns="http://www.w3.org/2000/svg">
<path d="M9 0C4.032 0 0 4.032 0 9C0 13.968 4.032 18 9 18C13.968 18 18 13.968 18 9C18 4.032 13.968 0 9 0ZM9.819 14.535C9.7561 14.5967 9.67649 14.6385 9.59003 14.6554C9.50357 14.6722 9.41407 14.6633 9.33262 14.6298C9.25117 14.5962 9.18135 14.5395 9.13182 14.4667C9.0823 14.3939 9.05524 14.3081 9.054 14.22V13.5H9C7.848 13.5 6.696 13.059 5.814 12.186C5.20292 11.5734 4.7812 10.7978 4.59925 9.95194C4.41731 9.10604 4.48283 8.22564 4.788 7.416C4.959 6.957 5.562 6.84 5.904 7.191C6.102 7.389 6.147 7.677 6.057 7.929C5.643 9.045 5.877 10.341 6.777 11.241C7.407 11.871 8.235 12.168 9.063 12.15V11.304C9.063 10.899 9.549 10.701 9.828 10.989L11.286 12.447C11.466 12.627 11.466 12.906 11.286 13.086L9.819 14.535ZM12.096 10.818C12.003 10.7223 11.9392 10.602 11.9121 10.4713C11.885 10.3406 11.8957 10.2048 11.943 10.08C12.357 8.964 12.123 7.668 11.223 6.768C10.593 6.138 9.765 5.832 8.946 5.85V6.696C8.946 7.101 8.46 7.299 8.181 7.011L6.714 5.562C6.534 5.382 6.534 5.103 6.714 4.923L8.172 3.465C8.2349 3.40333 8.31451 3.36148 8.40097 3.34463C8.48743 3.32778 8.57693 3.33668 8.65838 3.37022C8.73983 3.40375 8.80965 3.46046 8.85918 3.5333C8.9087 3.60615 8.93576 3.69192 8.937 3.78V4.509C10.107 4.491 11.286 4.914 12.177 5.814C12.7881 6.42656 13.2098 7.20216 13.3917 8.04806C13.5737 8.89396 13.5082 9.77436 13.203 10.584C13.032 11.052 12.438 11.169 12.096 10.818V10.818Z" fill="#717171"/>
</svg>
