<svg width="79" height="72" viewBox="0 0 79 72" fill="none" xmlns="http://www.w3.org/2000/svg">
<path fill-rule="evenodd" clip-rule="evenodd" d="M67.9321 51.4559V10.187H10.2422V51.4559C10.2422 52.5488 10.6763 53.5969 11.4491 54.3697C12.2219 55.1425 13.27 55.5766 14.3629 55.5766H63.8114C64.9043 55.5766 65.9524 55.1425 66.7252 54.3697C67.498 53.5969 67.9321 52.5488 67.9321 51.4559Z" stroke="white" stroke-width="4" stroke-linecap="round" stroke-linejoin="round"/>
<path d="M30.843 55.5771L22.6016 69.9996" stroke="white" stroke-width="4" stroke-linecap="round" stroke-linejoin="round"/>
<path d="M47.3281 55.5771L55.5695 67.9393" stroke="white" stroke-width="4" stroke-linecap="round" stroke-linejoin="round"/>
<path d="M2 10.2495H76.1727" stroke="white" stroke-width="4" stroke-linecap="round" stroke-linejoin="round"/>
<path fill-rule="evenodd" clip-rule="evenodd" d="M39.081 2C41.1608 2.00439 43.1625 2.793 44.6863 4.2084C46.2102 5.62381 47.1442 7.56186 47.3019 9.63567L47.3266 10.2497L30.8438 10.2414C30.8396 5.68803 34.5277 2 39.081 2Z" stroke="white" stroke-width="4" stroke-linecap="round" stroke-linejoin="round"/>
</svg>
