<svg width="72" height="68" viewBox="0 0 72 68" fill="none" xmlns="http://www.w3.org/2000/svg">
<path d="M12.3763 0L8.75571 3.59523L14.1429 8.94972L17.7583 5.35449L12.3737 0H12.3763ZM59.6263 0L54.2391 5.35449L57.8571 8.94972L63.2417 3.59779L59.6237 0H59.6263ZM36 1.59561C35.1514 1.60584 34.2926 1.65442 33.4286 1.75926C33.4029 1.75926 33.3771 1.75415 33.3514 1.75926C22.9217 2.9483 14.6211 11.3278 13.1786 21.6532C12.0266 29.9637 15.4723 37.4993 21.2143 42.3526C23.563 44.346 25.1517 47.0813 25.7143 50.1006V65.4429H31.5771C32.472 66.9695 34.1049 68 36 68C37.8951 68 39.528 66.9695 40.4229 65.4429H46.2857V55.2147H46.5274V52.1769C46.5274 48.4282 48.4869 44.6489 51.6703 41.7108C55.9286 37.4712 59.1429 31.4493 59.1429 24.5325C59.1429 11.9006 48.6874 1.47798 36 1.59561ZM36 6.70974C45.9386 6.57165 54 14.6622 54 24.5325C54 29.887 51.5057 34.6022 48.0523 38.0338L48.1346 38.1156C44.7027 41.2626 42.4835 45.5024 41.8603 50.1031H30.6129C30.0471 45.7203 28.1571 41.4781 24.5854 38.4352C20.0417 34.5996 17.334 28.8207 18.2391 22.295C19.3629 14.2403 25.9354 7.76325 33.9891 6.87594C34.6541 6.78376 35.3237 6.72912 35.9949 6.71229L36 6.70974ZM0 24.5325V29.6466H7.71429V24.5325H0ZM64.2857 24.5325V29.6466H72V24.5325H64.2857ZM14.1429 45.2293L8.75829 50.5813L12.3763 54.1791L17.7557 48.8246L14.1429 45.2293ZM57.8571 45.2293L54.2417 48.8246L59.6237 54.1791L63.2417 50.5813L57.8571 45.2293ZM30.8571 55.2172H41.1429V60.3314H30.8571V55.2172Z" fill="white"/>
</svg>
