<svg width="79" height="72" viewBox="0 0 79 72" fill="none" xmlns="http://www.w3.org/2000/svg">
<path d="M71.1 8H58.5785L51.35 0H27.65L20.4215 8H7.9C3.555 8 0 11.6 0 16V64C0 68.4 3.555 72 7.9 72H71.1C75.445 72 79 68.4 79 64V16C79 11.6 75.445 8 71.1 8ZM71.1 64H7.9V16H23.8975L26.228 13.4L31.126 8H47.874L52.772 13.4L55.1025 16H71.1V64ZM39.5 20C28.598 20 19.75 28.96 19.75 40C19.75 51.04 28.598 60 39.5 60C50.402 60 59.25 51.04 59.25 40C59.25 28.96 50.402 20 39.5 20ZM39.5 52.8C32.5085 52.8 26.86 47.08 26.86 40C26.86 32.92 32.5085 27.2 39.5 27.2C46.4915 27.2 52.14 32.92 52.14 40C52.14 47.08 46.4915 52.8 39.5 52.8Z" fill="white"/>
</svg>
